<?xml version="1.0" encoding="UTF-8"?>
<svg version="1.1" viewBox="0 0 2048 1823" width="2840" height="2528" xmlns="http://www.w3.org/2000/svg">
<path transform="translate(0)" d="m0 0h2048v1823h-2048z"/>
<path transform="translate(756,328)" d="m0 0h503l16 2 20 5 21 8 17 8 20 12 17 13 13 12 11 11 12 16 24 42 15 26 10 17 30 52 12 21 15 26 14 24 30 52 16 28 14 24 30 52 14 24 24 42 8 20 5 20 3 17 1 10v37l-5 30-5 19-10 23-12 21-14 24-75 130-14 24-16 28-14 24-16 28-15 26-14 24-16 28-14 24-15 26-11 19-11 14-14 15-8 7-13 10-17 11-23 12-26 10-23 5-7 1h-511l-20-3-17-5-25-10-20-11-16-11-14-11-7-7-6-5-7-8-10-13-15-25-14-25-9-15-16-28-75-130-14-24-16-28-14-24-45-78-12-21-14-24-8-16-7-18-3-11-3-17-2-20v-32l5-32 5-18 8-19 14-25 10-17 15-26 14-24 16-28 14-24 13-23 14-24 30-52 14-24 12-21 14-24 24-42 14-24 15-26 14-24 9-12 11-12 12-12 17-13 17-11 21-11 24-9 15-4z" fill="#F9F7FC"/>
<path transform="translate(469,964)" d="m0 0h435l16 3 18 5 15 6 16 8 14 8 16 12 14 12 7 7 13 17 14 25 14 24 8 13 6 11 14 25 13 22 15 26 12 21 30 52 11 19 14 24 12 21 15 26 14 24 15 26 8 16 2 7v16l-6 7-8 4-9 2h-441l-17-3-27-9-22-11-20-13-10-8-12-11-8-8-11-15-13-23-11-19-14-24-16-28-15-26-14-24-15-26-12-21-15-26-14-24-12-21-15-26-14-24-8-14-14-24-12-22-3-9v-15l4-7 12-6z" fill="#591EB1"/>
<path transform="translate(796,407)" d="m0 0h424l11 1 11 4 6 5 2 3 1 11-3 12-8 16-14 25-14 24-15 26-14 24-9 16-14 24-16 28-13 22-9 16-14 24-28 49-13 22-14 25-9 15-13 22-11 14-15 15-17 13-13 8-23 12-17 6-17 5-11 2h-439l-10-2-9-4-5-5-2-3v-14l4-13 10-18 14-24 15-26 14-24 14-25 10-17 17-29 14-25 9-15 16-28 14-24 30-52 14-24 13-23 10-17 10-13 11-12 11-9 10-8 14-9 23-12 18-7 23-6z" fill="#7628EC"/>
<path transform="translate(1326,465)" d="m0 0 8 1 8 5 9 9 9 14 6 11 9 16 14 24 16 28 10 17 13 23 14 24 13 23 13 22 13 23 16 27 13 23 15 26 10 17 16 28 15 26 7 16 5 17 3 18 1 10v35l-4 27-5 17-7 17-14 24-15 26-24 42-17 29-28 49-10 17-12 21-15 26-14 24-16 28-16 27-15 27-10 17-9 14-9 10-6 4-4 1h-7l-10-5-9-10-8-13-12-21-14-24-9-16-14-24-30-52-16-28-8-13-15-27-10-17-15-26-14-24-16-28-6-10-12-21-11-19-8-15-9-27-3-17-1-10v-35l3-23 6-21 5-12 7-14 11-19 28-48 13-23 13-22 10-18 9-15 16-28 15-26 13-22 13-23 16-27 13-23 14-24 12-21 11-19 8-10 8-7z" fill="#7D54EE"/>
<path transform="translate(731,1084)" d="m0 0h22l6 3 7 9 9 15 5 3 16 1-9-16-5-8-1-6 3-1h22l6 4 6 8 9 14 5 4 36 3 20 4 19 7 19 10 9 7 4 3v2l4 2 8 10 6 12 1 3v11l-4 7-7 6-2 1-1 4 4 2 12 4 18 8 14 9 13 11 8 10 6 12 2 12-3 10-9 10-11 5-17 4-31 2 2 6 9 15 1 7h-27l-7-7-9-15-5-5-2-1-15-1 3 7 9 16 1 6h-27l-6-5-10-17-7-6-72-2-5-4-12-19-5-9v-2l2-1 18-2 10-3 5-5-1-7-12-20-12-19-13-21-14-22-4-5-11-7-12-4-11-2-14-1-7-3-5-5-13-21v-5l1-1 70-1-6-11-8-14v-4z" fill="#FAF8FD"/>
<path transform="translate(1311,716)" d="m0 0 4 1 11 15 14 21 11 16 8 12 13 19 11 16 27 40 17 25 11 16 19 28 3 4v3l-6 4-20 13-16 10-24 16-22 14-10 7-11 7-14 9-2 1-19-10-23-13-20-11-47-26-28-16 1-6 10-19 21-41 10-19 17-34 10-19 24-47 10-19 8-15z" fill="#FAF8FD"/>
<path transform="translate(974,527)" d="m0 0h30l-2 8-15 24-12 19-7 10-5 4-6 2-53 2-10 2-7 10-10 17 31 2 18 3 15 5 6 4 5 6v8l-4 8-7 7-11 7-20 8-26 7-27 5-23 3-7 4-12 19-14 22-15 24-8 7-4 1-44 2h-8l-2-1 1-7 8-14 7-10 25-40 2-4-23-2-22-3-15-4-9-5-5-6-1-7 5-10 9-8 10-6 17-7 22-6 24-5 30-4 7-3 7-10 9-15h-65l3-9 10-16 11-17 12-18 5-5 3-1 17-1 86-3z" fill="#FAF8FD"/>
<path transform="translate(1448,965)" d="m0 0 4 1 2 4-6 12-7 11-14 23-30 48-11 18-12 19-15 25-11 17-5 1-8-9-11-14-12-15-10-13-12-15-11-14-12-15-11-14-12-15-13-17-11-13-11-15 2-4 5-1 26 14 16 9 22 12 23 13 28 15 4 2 5-1 24-15 23-15 25-16 23-15z" fill="#FAF8FD"/>
<path transform="translate(867,641)" d="m0 0h12l26 3 16 4 10 5 1 2-4 6-6 4-21 7-29 6-27 4-27 2h-59l-21-2-20-5-8-4 1-6 5-5 12-5 19-5 37-7 15-1-1 5-6 10v4h26l23-1 9-1 7-7 8-12z" fill="#7628EC"/>
<path transform="translate(847,1224)" d="m0 0h56l15 3 11 4 10 7 7 7 4 9-1 6-6 5-11 3h-57l-7-6-16-26-5-9z" fill="#591EB1"/>
<path transform="translate(801,1150)" d="m0 0h58l13 3 11 6 8 7 4 7v10l-4 4-7 2h-59l-5-4-16-26-3-5z" fill="#591EB1"/>
<path transform="translate(1431,620)" d="m0 0 4 5 15 26 8 14 14 24 16 28 14 24 12 21 11 19 10 17 16 28 7 12-1 2-2-5h-2l-3-6-13-23-5-9-10-17-5-7-6-12-12-21-13-22-3-5v-2h-2l-5-10-13-23-11-18-5-10-5-7-6-12-5-8z" fill="#7833EC"/>
<path transform="translate(1453,972)" d="m0 0 1 3-8 13-24 40-11 16-4 8-14 22-6 10-13 20-8 14-12 20-3 4h-2l2-5 13-21 9-15 12-19 12-20 12-19 15-24 16-26 12-20z" fill="#7732EC"/>
<path transform="translate(1258,563)" d="m0 0h2l-2 5-8 14-7 12-6 12-6 9-6 11-7 11-3 6-30 51-6 11-13 22-11 19-2 1 2-6 10-17 9-16 10-17 16-28 28-48 16-28 11-19z" fill="#7835EC"/>
<path transform="translate(1278,1063)" d="m0 0 5 5 9 11 8 10 33 42 7 9-2 2-9-11-8-10v-3h-2l-4-5v-2h-2l-6-9-13-16-10-13-6-8z" fill="#772EEC"/>
<path transform="translate(1258,563)" d="m0 0h2l-2 5-8 14-7 12-6 12-6 9-6 11-7 11-3 6h-2l2-6 9-15 13-23 16-27z" fill="#7733EC"/>
<path transform="translate(1431,620)" d="m0 0 4 5 15 26 8 14 14 24 12 21-1 2-2-1-5-10-13-23-11-18-5-10-5-7-6-12-5-8z" fill="#7730EC"/>
<path transform="translate(1360,497)" d="m0 0 3 3 12 21 21 36-1 2-6-9-13-22-6-11-4-7-6-10z" fill="#7731EC"/>
<path transform="translate(1396,560)" d="m0 0 4 4 24 42 7 12-1 2-2-2v-3h-2l-5-10-3-5-10-17-6-11-6-10z" fill="#7732EC"/>
<path transform="translate(1278,1063)" d="m0 0 5 5 9 11 8 10 11 14h-3l-10-12-11-14-9-12z" fill="#7730EC"/>
<path transform="translate(1370,1106)" d="m0 0h2l-2 5-13 22-3 5-3 4h-2l2-5 13-21z" fill="#7834EC"/>
<path transform="translate(1210,977)" d="m0 0 5 5 13 16 11 14v2h-2l-8-11-4-5-2-1v-3l-3-1-4-6-2-1-4-7z" fill="#7731EC"/>
<path transform="translate(1453,972)" d="m0 0 1 3-8 13-10 16-2-1 10-17z" fill="#7833EC"/>
<path transform="translate(1290,509)" d="m0 0 1 2-12 21-5 7-1-2 15-26z" fill="#7835EC"/>
<path transform="translate(1360,497)" d="m0 0 3 3 12 21 3 6h-2l-8-13-8-14z" fill="#7833EC"/>
<path transform="translate(1258,1038)" d="m0 0 5 5 7 8 8 10v2h-2l-4-5v-2l-3-1-7-10-4-5z" fill="#7835EC"/>
<path transform="translate(1458,932)" d="m0 0 2 1-9 7-16 10-2-1 10-7 11-7z" fill="#7938ED"/>
<path transform="translate(1508,754)" d="m0 0 4 4 12 21h-3l-5-9-8-14z" fill="#7730EC"/>
<path transform="translate(1382,1087)" d="m0 0 2 1-11 18-2-1 8-14z" fill="#7836EC"/>
<path transform="translate(1358,1128)" d="m0 0v3l-3 6-4 5h-2l2-5 5-8z" fill="#772FEC"/>
<path transform="translate(1278,1063)" d="m0 0 5 5 8 10h-3l-10-13z" fill="#7834EC"/>
</svg>
